# xmcd CD database file generated by OrangeCD 6.5
#
# Track frame offsets:
#	150
#	17920
#	40952
#	59014
#	83527
#	97937
#	127912
#	136612
#	168495
#	186117
#	206627
#	233587
#
# Disc length: 3336 seconds
#
# Revision: 0
# Processed by: cddbd v1.5.2PL0 Copyright (c) Steve Scherf et al.
# Submitted via: OrangeCD 6.5
#
DISCID=940d060c
DTITLE=Mimi and The Snakes - Paradise
DYEAR=1900
DGENRE=
TTITLE0=Tell Me Why
TTITLE1=Troubled Mind
TTITLE2=Midnight
TTITLE3=Paradise
TTITLE4=To Be With You
TTITLE5=Twilite Bark
TTITLE6=Cozmo Takes A Walk
TTITLE7=Snake Blues
TTITLE8=Dignity
TTITLE9=Strange Feeling
TTITLE10=Dirty Lies
TTITLE11=Miss You 
EXTD=
EXTT0=
EXTT1=
EXTT2=
EXTT3=
EXTT4=
EXTT5=
EXTT6=
EXTT7=
EXTT8=
EXTT9=
EXTT10=
EXTT11=
PLAYORDER=
